<?xml version="1.0" encoding="UTF-8" standalone="no"?>
<!DOCTYPE svg PUBLIC "-//W3C//DTD SVG 1.1//EN"
 "http://www.w3.org/Graphics/SVG/1.1/DTD/svg11.dtd">
<!-- Generated by graphviz version 12.2.1 (20241206.2353)
 -->
<!-- Title: DataStore Pages: 1 -->
<svg width="4382pt" height="359pt"
 viewBox="0.00 0.00 4381.65 358.75" xmlns="http://www.w3.org/2000/svg" xmlns:xlink="http://www.w3.org/1999/xlink">
<g id="graph0" class="graph" transform="scale(1 1) rotate(0) translate(4 354.75)">
<title>DataStore</title>
<polygon fill="white" stroke="none" points="-4,4 -4,-354.75 4377.65,-354.75 4377.65,4 -4,4"/>
<!-- stats -->
<g id="node1" class="node">
<title>stats</title>
<polygon fill="#e6e6fa" stroke="none" points="2324.61,-326.5 2324.61,-346.75 2443.11,-346.75 2443.11,-326.5 2324.61,-326.5"/>
<polygon fill="none" stroke="black" points="2324.61,-326.5 2324.61,-346.75 2443.11,-346.75 2443.11,-326.5 2324.61,-326.5"/>
<text text-anchor="start" x="2327.61" y="-333.35" font-family="Arial" font-weight="bold" font-size="12.00">DataStore Statistics</text>
<polygon fill="none" stroke="black" points="2324.61,-306.25 2324.61,-326.5 2443.11,-326.5 2443.11,-306.25 2324.61,-306.25"/>
<text text-anchor="start" x="2327.61" y="-312.1" font-family="Arial" font-size="12.00">Total Keys: 17</text>
<polygon fill="none" stroke="black" points="2324.61,-286 2324.61,-306.25 2443.11,-306.25 2443.11,-286 2324.61,-286"/>
<text text-anchor="start" x="2327.61" y="-291.85" font-family="Arial" font-size="12.00">Total Items: 10</text>
</g>
<!-- keyCategory -->
<g id="node2" class="node">
<title>keyCategory</title>
<polygon fill="#d0e0ff" stroke="none" points="2495.61,-306.25 2495.61,-326.5 2596.11,-326.5 2596.11,-306.25 2495.61,-306.25"/>
<polygon fill="none" stroke="black" points="2495.61,-306.25 2495.61,-326.5 2596.11,-326.5 2596.11,-306.25 2495.61,-306.25"/>
<text text-anchor="start" x="2498.61" y="-313.1" font-family="Arial" font-weight="bold" font-size="12.00">Composite Keys</text>
</g>
<!-- stats&#45;&gt;keyCategory -->
<!-- keyLevel_2 -->
<g id="node3" class="node">
<title>keyLevel_2</title>
<polygon fill="#e0efff" stroke="none" points="1638.36,-196.25 1638.36,-215.75 1737.36,-215.75 1737.36,-196.25 1638.36,-196.25"/>
<polygon fill="none" stroke="black" points="1638.36,-196.25 1638.36,-215.75 1737.36,-215.75 1737.36,-196.25 1638.36,-196.25"/>
<text text-anchor="start" x="1641.36" y="-202.3" font-family="Arial" font-size="11.00">2&#45;Component Keys</text>
</g>
<!-- keyCategory&#45;&gt;keyLevel_2 -->
<g id="edge2" class="edge">
<title>keyCategory&#45;&gt;keyLevel_2</title>
<path fill="none" stroke="black" d="M2506.91,-298.49C2487.81,-290.21 2468.86,-282 2468.86,-282 2468.86,-282 1941.97,-231.4 1753.72,-213.33"/>
<polygon fill="black" stroke="black" points="1754,-210.89 1746.79,-212.66 1753.53,-215.77 1754,-210.89"/>
</g>
<!-- keyLevel_4 -->
<g id="node33" class="node">
<title>keyLevel_4</title>
<polygon fill="#e0efff" stroke="none" points="3354.36,-196.25 3354.36,-215.75 3453.36,-215.75 3453.36,-196.25 3354.36,-196.25"/>
<polygon fill="none" stroke="black" points="3354.36,-196.25 3354.36,-215.75 3453.36,-215.75 3453.36,-196.25 3354.36,-196.25"/>
<text text-anchor="start" x="3357.36" y="-202.3" font-family="Arial" font-size="11.00">4&#45;Component Keys</text>
</g>
<!-- keyCategory&#45;&gt;keyLevel_4 -->
<g id="edge32" class="edge">
<title>keyCategory&#45;&gt;keyLevel_4</title>
<path fill="none" stroke="black" d="M2603.82,-308.05C2757.83,-288.6 3176.49,-235.72 3338.56,-215.25"/>
<polygon fill="black" stroke="black" points="3338.4,-217.74 3345.04,-214.43 3337.79,-212.88 3338.4,-217.74"/>
</g>
<!-- color:Green -->
<g id="node4" class="node">
<title>color:Green</title>
<path fill="#f0f8ff" stroke="black" d="M237.98,-130C237.98,-130 189.73,-130 189.73,-130 183.73,-130 177.73,-124 177.73,-118 177.73,-118 177.73,-106 177.73,-106 177.73,-100 183.73,-94 189.73,-94 189.73,-94 237.98,-94 237.98,-94 243.98,-94 249.98,-100 249.98,-106 249.98,-106 249.98,-118 249.98,-118 249.98,-124 243.98,-130 237.98,-130"/>
<text text-anchor="middle" x="213.86" y="-115.05" font-family="Arial" font-size="11.00">color:Green</text>
<text text-anchor="middle" x="213.86" y="-101.55" font-family="Arial" font-size="11.00">(1 items)</text>
</g>
<!-- keyLevel_2&#45;&gt;color:Green -->
<g id="edge3" class="edge">
<title>keyLevel_2&#45;&gt;color:Green</title>
<path fill="none" stroke="black" d="M1630.53,-201.42C1390.94,-186.47 472.38,-129.14 258.53,-115.79"/>
<polygon fill="black" stroke="black" points="258.99,-113.36 251.85,-115.37 258.69,-118.25 258.99,-113.36"/>
</g>
<!-- color:Orange -->
<g id="node6" class="node">
<title>color:Orange</title>
<path fill="#f0f8ff" stroke="black" d="M581.98,-130C581.98,-130 527.73,-130 527.73,-130 521.73,-130 515.73,-124 515.73,-118 515.73,-118 515.73,-106 515.73,-106 515.73,-100 521.73,-94 527.73,-94 527.73,-94 581.98,-94 581.98,-94 587.98,-94 593.98,-100 593.98,-106 593.98,-106 593.98,-118 593.98,-118 593.98,-124 587.98,-130 581.98,-130"/>
<text text-anchor="middle" x="554.86" y="-115.05" font-family="Arial" font-size="11.00">color:Orange</text>
<text text-anchor="middle" x="554.86" y="-101.55" font-family="Arial" font-size="11.00">(5 items)</text>
</g>
<!-- keyLevel_2&#45;&gt;color:Orange -->
<g id="edge5" class="edge">
<title>keyLevel_2&#45;&gt;color:Orange</title>
<path fill="none" stroke="black" d="M1630.51,-200.34C1433.23,-184.32 784.77,-131.67 602.75,-116.89"/>
<polygon fill="black" stroke="black" points="603.12,-114.46 595.95,-116.34 602.73,-119.35 603.12,-114.46"/>
</g>
<!-- color:Red -->
<g id="node12" class="node">
<title>color:Red</title>
<path fill="#f0f8ff" stroke="black" d="M1075.11,-130C1075.11,-130 1036.61,-130 1036.61,-130 1030.61,-130 1024.61,-124 1024.61,-118 1024.61,-118 1024.61,-106 1024.61,-106 1024.61,-100 1030.61,-94 1036.61,-94 1036.61,-94 1075.11,-94 1075.11,-94 1081.11,-94 1087.11,-100 1087.11,-106 1087.11,-106 1087.11,-118 1087.11,-118 1087.11,-124 1081.11,-130 1075.11,-130"/>
<text text-anchor="middle" x="1055.86" y="-115.05" font-family="Arial" font-size="11.00">color:Red</text>
<text text-anchor="middle" x="1055.86" y="-101.55" font-family="Arial" font-size="11.00">(2 items)</text>
</g>
<!-- keyLevel_2&#45;&gt;color:Red -->
<g id="edge11" class="edge">
<title>keyLevel_2&#45;&gt;color:Red</title>
<path fill="none" stroke="black" d="M1630.38,-196.63C1503.87,-178.22 1204.01,-134.57 1095.73,-118.8"/>
<polygon fill="black" stroke="black" points="1096.14,-116.39 1088.86,-117.8 1095.43,-121.24 1096.14,-116.39"/>
</g>
<!-- color:Yellow -->
<g id="node15" class="node">
<title>color:Yellow</title>
<path fill="#f0f8ff" stroke="black" d="M1356.36,-130C1356.36,-130 1307.36,-130 1307.36,-130 1301.36,-130 1295.36,-124 1295.36,-118 1295.36,-118 1295.36,-106 1295.36,-106 1295.36,-100 1301.36,-94 1307.36,-94 1307.36,-94 1356.36,-94 1356.36,-94 1362.36,-94 1368.36,-100 1368.36,-106 1368.36,-106 1368.36,-118 1368.36,-118 1368.36,-124 1362.36,-130 1356.36,-130"/>
<text text-anchor="middle" x="1331.86" y="-115.05" font-family="Arial" font-size="11.00">color:Yellow</text>
<text text-anchor="middle" x="1331.86" y="-101.55" font-family="Arial" font-size="11.00">(2 items)</text>
</g>
<!-- keyLevel_2&#45;&gt;color:Yellow -->
<g id="edge14" class="edge">
<title>keyLevel_2&#45;&gt;color:Yellow</title>
<path fill="none" stroke="black" d="M1630.66,-190.22C1559.98,-171.95 1441.18,-141.25 1376.72,-124.59"/>
<polygon fill="black" stroke="black" points="1377.61,-122.29 1370.22,-122.91 1376.39,-127.04 1377.61,-122.29"/>
</g>
<!-- name:Apple -->
<g id="node18" class="node">
<title>name:Apple</title>
<path fill="#f0f8ff" stroke="black" d="M1677.73,-130C1677.73,-130 1627.98,-130 1627.98,-130 1621.98,-130 1615.98,-124 1615.98,-118 1615.98,-118 1615.98,-106 1615.98,-106 1615.98,-100 1621.98,-94 1627.98,-94 1627.98,-94 1677.73,-94 1677.73,-94 1683.73,-94 1689.73,-100 1689.73,-106 1689.73,-106 1689.73,-118 1689.73,-118 1689.73,-124 1683.73,-130 1677.73,-130"/>
<text text-anchor="middle" x="1652.86" y="-115.05" font-family="Arial" font-size="11.00">name:Apple</text>
<text text-anchor="middle" x="1652.86" y="-101.55" font-family="Arial" font-size="11.00">(3 items)</text>
</g>
<!-- keyLevel_2&#45;&gt;name:Apple -->
<g id="edge17" class="edge">
<title>keyLevel_2&#45;&gt;name:Apple</title>
<path fill="none" stroke="black" d="M1681.44,-188.13C1676.13,-174.17 1668.5,-154.13 1662.47,-138.26"/>
<polygon fill="black" stroke="black" points="1664.79,-137.48 1660.01,-131.81 1660.21,-139.22 1664.79,-137.48"/>
</g>
<!-- name:Banana -->
<g id="node22" class="node">
<title>name:Banana</title>
<path fill="#f0f8ff" stroke="black" d="M1856.61,-130C1856.61,-130 1797.11,-130 1797.11,-130 1791.11,-130 1785.11,-124 1785.11,-118 1785.11,-118 1785.11,-106 1785.11,-106 1785.11,-100 1791.11,-94 1797.11,-94 1797.11,-94 1856.61,-94 1856.61,-94 1862.61,-94 1868.61,-100 1868.61,-106 1868.61,-106 1868.61,-118 1868.61,-118 1868.61,-124 1862.61,-130 1856.61,-130"/>
<text text-anchor="middle" x="1826.86" y="-115.05" font-family="Arial" font-size="11.00">name:Banana</text>
<text text-anchor="middle" x="1826.86" y="-101.55" font-family="Arial" font-size="11.00">(1 items)</text>
</g>
<!-- keyLevel_2&#45;&gt;name:Banana -->
<g id="edge21" class="edge">
<title>keyLevel_2&#45;&gt;name:Banana</title>
<path fill="none" stroke="black" d="M1713.35,-188.13C1735.89,-173.21 1768.93,-151.34 1793.55,-135.04"/>
<polygon fill="black" stroke="black" points="1794.83,-137.13 1799.32,-131.23 1792.13,-133.05 1794.83,-137.13"/>
</g>
<!-- name:Cherry -->
<g id="node24" class="node">
<title>name:Cherry</title>
<path fill="#f0f8ff" stroke="black" d="M2021.36,-130C2021.36,-130 1966.36,-130 1966.36,-130 1960.36,-130 1954.36,-124 1954.36,-118 1954.36,-118 1954.36,-106 1954.36,-106 1954.36,-100 1960.36,-94 1966.36,-94 1966.36,-94 2021.36,-94 2021.36,-94 2027.36,-94 2033.36,-100 2033.36,-106 2033.36,-106 2033.36,-118 2033.36,-118 2033.36,-124 2027.36,-130 2021.36,-130"/>
<text text-anchor="middle" x="1993.86" y="-115.05" font-family="Arial" font-size="11.00">name:Cherry</text>
<text text-anchor="middle" x="1993.86" y="-101.55" font-family="Arial" font-size="11.00">(1 items)</text>
</g>
<!-- keyLevel_2&#45;&gt;name:Cherry -->
<g id="edge23" class="edge">
<title>keyLevel_2&#45;&gt;name:Cherry</title>
<path fill="none" stroke="black" d="M1744.34,-188.02C1802.32,-170.59 1891.56,-143.76 1946.13,-127.35"/>
<polygon fill="black" stroke="black" points="1946.8,-129.71 1952.8,-125.34 1945.39,-125.01 1946.8,-129.71"/>
</g>
<!-- name:Durian -->
<g id="node26" class="node">
<title>name:Durian</title>
<path fill="#f0f8ff" stroke="black" d="M2278.98,-130C2278.98,-130 2224.73,-130 2224.73,-130 2218.73,-130 2212.73,-124 2212.73,-118 2212.73,-118 2212.73,-106 2212.73,-106 2212.73,-100 2218.73,-94 2224.73,-94 2224.73,-94 2278.98,-94 2278.98,-94 2284.98,-94 2290.98,-100 2290.98,-106 2290.98,-106 2290.98,-118 2290.98,-118 2290.98,-124 2284.98,-130 2278.98,-130"/>
<text text-anchor="middle" x="2251.86" y="-115.05" font-family="Arial" font-size="11.00">name:Durian</text>
<text text-anchor="middle" x="2251.86" y="-101.55" font-family="Arial" font-size="11.00">(3 items)</text>
</g>
<!-- keyLevel_2&#45;&gt;name:Durian -->
<g id="edge25" class="edge">
<title>keyLevel_2&#45;&gt;name:Durian</title>
<path fill="none" stroke="black" d="M1745.3,-195.63C1856.85,-177.43 2100.87,-137.63 2204.16,-120.78"/>
<polygon fill="black" stroke="black" points="2204.52,-123.2 2211.03,-119.66 2203.73,-118.37 2204.52,-123.2"/>
</g>
<!-- name:Elderberry -->
<g id="node30" class="node">
<title>name:Elderberry</title>
<path fill="#f0f8ff" stroke="black" d="M2651.98,-130C2651.98,-130 2579.73,-130 2579.73,-130 2573.73,-130 2567.73,-124 2567.73,-118 2567.73,-118 2567.73,-106 2567.73,-106 2567.73,-100 2573.73,-94 2579.73,-94 2579.73,-94 2651.98,-94 2651.98,-94 2657.98,-94 2663.98,-100 2663.98,-106 2663.98,-106 2663.98,-118 2663.98,-118 2663.98,-124 2657.98,-130 2651.98,-130"/>
<text text-anchor="middle" x="2615.86" y="-115.05" font-family="Arial" font-size="11.00">name:Elderberry</text>
<text text-anchor="middle" x="2615.86" y="-101.55" font-family="Arial" font-size="11.00">(2 items)</text>
</g>
<!-- keyLevel_2&#45;&gt;name:Elderberry -->
<g id="edge29" class="edge">
<title>keyLevel_2&#45;&gt;name:Elderberry</title>
<path fill="none" stroke="black" d="M1745.21,-199.31C1911.73,-182.81 2393.89,-135.01 2559.35,-118.6"/>
<polygon fill="black" stroke="black" points="2559.22,-121.08 2565.95,-117.95 2558.74,-116.2 2559.22,-121.08"/>
</g>
<!-- color:Green_item_Apple&#45;Ecuador -->
<g id="node5" class="node">
<title>color:Green_item_Apple&#45;Ecuador</title>
<ellipse fill="#ffe6e6" stroke="black" cx="54.86" cy="-18" rx="54.86" ry="18"/>
<text text-anchor="middle" x="54.86" y="-14.3" font-family="Arial" font-size="11.00">Apple&#45;Ecuador</text>
</g>
<!-- color:Green&#45;&gt;color:Green_item_Apple&#45;Ecuador -->
<g id="edge4" class="edge">
<title>color:Green&#45;&gt;color:Green_item_Apple&#45;Ecuador</title>
<path fill="none" stroke="black" d="M183.95,-93.7C156.78,-77.98 116.75,-54.81 88.48,-38.45"/>
<polygon fill="black" stroke="black" points="89.8,-36.39 82.51,-35 87.34,-40.63 89.8,-36.39"/>
</g>
<!-- color:Orange_item_Elderberry&#45;US -->
<g id="node7" class="node">
<title>color:Orange_item_Elderberry&#45;US</title>
<ellipse fill="#ffe6e6" stroke="black" cx="198.86" cy="-18" rx="53.46" ry="18"/>
<text text-anchor="middle" x="198.86" y="-14.3" font-family="Arial" font-size="11.00">Elderberry&#45;US</text>
</g>
<!-- color:Orange&#45;&gt;color:Orange_item_Elderberry&#45;US -->
<g id="edge6" class="edge">
<title>color:Orange&#45;&gt;color:Orange_item_Elderberry&#45;US</title>
<path fill="none" stroke="black" d="M515.4,-100.8C450.12,-83.93 319.77,-50.25 248.4,-31.8"/>
<polygon fill="black" stroke="black" points="249.27,-29.5 241.88,-30.12 248.05,-34.24 249.27,-29.5"/>
</g>
<!-- color:Orange_item_Cherry&#45;France -->
<g id="node8" class="node">
<title>color:Orange_item_Cherry&#45;France</title>
<ellipse fill="#ffe6e6" stroke="black" cx="341.86" cy="-18" rx="53.92" ry="18"/>
<text text-anchor="middle" x="341.86" y="-14.3" font-family="Arial" font-size="11.00">Cherry&#45;France</text>
</g>
<!-- color:Orange&#45;&gt;color:Orange_item_Cherry&#45;France -->
<g id="edge7" class="edge">
<title>color:Orange&#45;&gt;color:Orange_item_Cherry&#45;France</title>
<path fill="none" stroke="black" d="M515.29,-93.91C477.06,-77.4 419.46,-52.52 381.28,-36.03"/>
<polygon fill="black" stroke="black" points="382.7,-33.97 375.3,-33.44 380.75,-38.47 382.7,-33.97"/>
</g>
<!-- color:Orange_item_Apple&#45;France -->
<g id="node9" class="node">
<title>color:Orange_item_Apple&#45;France</title>
<ellipse fill="#ffe6e6" stroke="black" cx="482.86" cy="-18" rx="50.65" ry="18"/>
<text text-anchor="middle" x="482.86" y="-14.3" font-family="Arial" font-size="11.00">Apple&#45;France</text>
</g>
<!-- color:Orange&#45;&gt;color:Orange_item_Apple&#45;France -->
<g id="edge8" class="edge">
<title>color:Orange&#45;&gt;color:Orange_item_Apple&#45;France</title>
<path fill="none" stroke="black" d="M541.32,-93.7C529.91,-79.12 513.5,-58.15 500.96,-42.13"/>
<polygon fill="black" stroke="black" points="503.03,-40.8 496.79,-36.8 499.17,-43.82 503.03,-40.8"/>
</g>
<!-- color:Orange_item_Banana&#45;France -->
<g id="node10" class="node">
<title>color:Orange_item_Banana&#45;France</title>
<ellipse fill="#ffe6e6" stroke="black" cx="625.86" cy="-18" rx="56.73" ry="18"/>
<text text-anchor="middle" x="625.86" y="-14.3" font-family="Arial" font-size="11.00">Banana&#45;France</text>
</g>
<!-- color:Orange&#45;&gt;color:Orange_item_Banana&#45;France -->
<g id="edge9" class="edge">
<title>color:Orange&#45;&gt;color:Orange_item_Banana&#45;France</title>
<path fill="none" stroke="black" d="M568.21,-93.7C579.39,-79.21 595.44,-58.41 607.77,-42.43"/>
<polygon fill="black" stroke="black" points="609.54,-44.15 611.88,-37.11 605.66,-41.16 609.54,-44.15"/>
</g>
<!-- color:Orange_item_Elderberry&#45;Italy -->
<g id="node11" class="node">
<title>color:Orange_item_Elderberry&#45;Italy</title>
<ellipse fill="#ffe6e6" stroke="black" cx="774.86" cy="-18" rx="55.79" ry="18"/>
<text text-anchor="middle" x="774.86" y="-14.3" font-family="Arial" font-size="11.00">Elderberry&#45;Italy</text>
</g>
<!-- color:Orange&#45;&gt;color:Orange_item_Elderberry&#45;Italy -->
<g id="edge10" class="edge">
<title>color:Orange&#45;&gt;color:Orange_item_Elderberry&#45;Italy</title>
<path fill="none" stroke="black" d="M594.44,-94.45C633.88,-77.96 694.14,-52.76 734.01,-36.08"/>
<polygon fill="black" stroke="black" points="734.79,-38.41 740.3,-33.45 732.9,-33.89 734.79,-38.41"/>
</g>
<!-- color:Red_item_Durian&#45;France -->
<g id="node13" class="node">
<title>color:Red_item_Durian&#45;France</title>
<ellipse fill="#ffe6e6" stroke="black" cx="919.86" cy="-18" rx="53.46" ry="18"/>
<text text-anchor="middle" x="919.86" y="-14.3" font-family="Arial" font-size="11.00">Durian&#45;France</text>
</g>
<!-- color:Red&#45;&gt;color:Red_item_Durian&#45;France -->
<g id="edge12" class="edge">
<title>color:Red&#45;&gt;color:Red_item_Durian&#45;France</title>
<path fill="none" stroke="black" d="M1030.28,-93.7C1007.45,-78.25 973.99,-55.62 949.9,-39.32"/>
<polygon fill="black" stroke="black" points="951.48,-37.43 944.31,-35.54 948.73,-41.49 951.48,-37.43"/>
</g>
<!-- color:Red_item_Apple&#45;Spain -->
<g id="node14" class="node">
<title>color:Red_item_Apple&#45;Spain</title>
<ellipse fill="#ffe6e6" stroke="black" cx="1055.86" cy="-18" rx="46.91" ry="18"/>
<text text-anchor="middle" x="1055.86" y="-14.3" font-family="Arial" font-size="11.00">Apple&#45;Spain</text>
</g>
<!-- color:Red&#45;&gt;color:Red_item_Apple&#45;Spain -->
<g id="edge13" class="edge">
<title>color:Red&#45;&gt;color:Red_item_Apple&#45;Spain</title>
<path fill="none" stroke="black" d="M1055.86,-93.7C1055.86,-79.82 1055.86,-60.14 1055.86,-44.46"/>
<polygon fill="black" stroke="black" points="1058.31,-44.74 1055.86,-37.74 1053.41,-44.74 1058.31,-44.74"/>
</g>
<!-- color:Yellow_item_Durian&#45;Spain -->
<g id="node16" class="node">
<title>color:Yellow_item_Durian&#45;Spain</title>
<ellipse fill="#ffe6e6" stroke="black" cx="1188.86" cy="-18" rx="49.71" ry="18"/>
<text text-anchor="middle" x="1188.86" y="-14.3" font-family="Arial" font-size="11.00">Durian&#45;Spain</text>
</g>
<!-- color:Yellow&#45;&gt;color:Yellow_item_Durian&#45;Spain -->
<g id="edge15" class="edge">
<title>color:Yellow&#45;&gt;color:Yellow_item_Durian&#45;Spain</title>
<path fill="none" stroke="black" d="M1304.96,-93.7C1280.56,-77.99 1244.61,-54.87 1219.19,-38.51"/>
<polygon fill="black" stroke="black" points="1220.8,-36.64 1213.59,-34.91 1218.15,-40.76 1220.8,-36.64"/>
</g>
<!-- color:Yellow_item_Durian&#45;Ecuador -->
<g id="node17" class="node">
<title>color:Yellow_item_Durian&#45;Ecuador</title>
<ellipse fill="#ffe6e6" stroke="black" cx="1331.86" cy="-18" rx="57.66" ry="18"/>
<text text-anchor="middle" x="1331.86" y="-14.3" font-family="Arial" font-size="11.00">Durian&#45;Ecuador</text>
</g>
<!-- color:Yellow&#45;&gt;color:Yellow_item_Durian&#45;Ecuador -->
<g id="edge16" class="edge">
<title>color:Yellow&#45;&gt;color:Yellow_item_Durian&#45;Ecuador</title>
<path fill="none" stroke="black" d="M1331.86,-93.7C1331.86,-79.82 1331.86,-60.14 1331.86,-44.46"/>
<polygon fill="black" stroke="black" points="1334.31,-44.74 1331.86,-37.74 1329.41,-44.74 1334.31,-44.74"/>
</g>
<!-- name:Apple_item_Apple&#45;France -->
<g id="node19" class="node">
<title>name:Apple_item_Apple&#45;France</title>
<ellipse fill="#ffe6e6" stroke="black" cx="1475.86" cy="-18" rx="50.65" ry="18"/>
<text text-anchor="middle" x="1475.86" y="-14.3" font-family="Arial" font-size="11.00">Apple&#45;France</text>
</g>
<!-- name:Apple&#45;&gt;name:Apple_item_Apple&#45;France -->
<g id="edge18" class="edge">
<title>name:Apple&#45;&gt;name:Apple_item_Apple&#45;France</title>
<path fill="none" stroke="black" d="M1619.57,-93.7C1588.6,-77.6 1542.62,-53.7 1511.06,-37.3"/>
<polygon fill="black" stroke="black" points="1512.44,-35.26 1505.1,-34.2 1510.18,-39.6 1512.44,-35.26"/>
</g>
<!-- name:Apple_item_Apple&#45;Ecuador -->
<g id="node20" class="node">
<title>name:Apple_item_Apple&#45;Ecuador</title>
<ellipse fill="#ffe6e6" stroke="black" cx="1617.86" cy="-18" rx="54.86" ry="18"/>
<text text-anchor="middle" x="1617.86" y="-14.3" font-family="Arial" font-size="11.00">Apple&#45;Ecuador</text>
</g>
<!-- name:Apple&#45;&gt;name:Apple_item_Apple&#45;Ecuador -->
<g id="edge19" class="edge">
<title>name:Apple&#45;&gt;name:Apple_item_Apple&#45;Ecuador</title>
<path fill="none" stroke="black" d="M1646.27,-93.7C1640.95,-79.69 1633.37,-59.77 1627.38,-44.03"/>
<polygon fill="black" stroke="black" points="1629.73,-43.31 1624.95,-37.64 1625.15,-45.06 1629.73,-43.31"/>
</g>
<!-- name:Apple_item_Apple&#45;Spain -->
<g id="node21" class="node">
<title>name:Apple_item_Apple&#45;Spain</title>
<ellipse fill="#ffe6e6" stroke="black" cx="1755.86" cy="-18" rx="46.91" ry="18"/>
<text text-anchor="middle" x="1755.86" y="-14.3" font-family="Arial" font-size="11.00">Apple&#45;Spain</text>
</g>
<!-- name:Apple&#45;&gt;name:Apple_item_Apple&#45;Spain -->
<g id="edge20" class="edge">
<title>name:Apple&#45;&gt;name:Apple_item_Apple&#45;Spain</title>
<path fill="none" stroke="black" d="M1672.23,-93.7C1689.19,-78.54 1713.9,-56.48 1732.06,-40.25"/>
<polygon fill="black" stroke="black" points="1733.23,-42.49 1736.82,-36 1729.97,-38.84 1733.23,-42.49"/>
</g>
<!-- name:Banana_item_Banana&#45;France -->
<g id="node23" class="node">
<title>name:Banana_item_Banana&#45;France</title>
<ellipse fill="#ffe6e6" stroke="black" cx="1895.86" cy="-18" rx="56.73" ry="18"/>
<text text-anchor="middle" x="1895.86" y="-14.3" font-family="Arial" font-size="11.00">Banana&#45;France</text>
</g>
<!-- name:Banana&#45;&gt;name:Banana_item_Banana&#45;France -->
<g id="edge22" class="edge">
<title>name:Banana&#45;&gt;name:Banana_item_Banana&#45;France</title>
<path fill="none" stroke="black" d="M1839.84,-93.7C1850.7,-79.21 1866.3,-58.41 1878.28,-42.43"/>
<polygon fill="black" stroke="black" points="1880.02,-44.2 1882.26,-37.13 1876.1,-41.26 1880.02,-44.2"/>
</g>
<!-- name:Cherry_item_Cherry&#45;France -->
<g id="node25" class="node">
<title>name:Cherry_item_Cherry&#45;France</title>
<ellipse fill="#ffe6e6" stroke="black" cx="2042.86" cy="-18" rx="53.92" ry="18"/>
<text text-anchor="middle" x="2042.86" y="-14.3" font-family="Arial" font-size="11.00">Cherry&#45;France</text>
</g>
<!-- name:Cherry&#45;&gt;name:Cherry_item_Cherry&#45;France -->
<g id="edge24" class="edge">
<title>name:Cherry&#45;&gt;name:Cherry_item_Cherry&#45;France</title>
<path fill="none" stroke="black" d="M2003.07,-93.7C2010.6,-79.56 2021.34,-59.41 2029.76,-43.59"/>
<polygon fill="black" stroke="black" points="2031.84,-44.89 2032.97,-37.56 2027.52,-42.59 2031.84,-44.89"/>
</g>
<!-- name:Durian_item_Durian&#45;Spain -->
<g id="node27" class="node">
<title>name:Durian_item_Durian&#45;Spain</title>
<ellipse fill="#ffe6e6" stroke="black" cx="2182.86" cy="-18" rx="49.71" ry="18"/>
<text text-anchor="middle" x="2182.86" y="-14.3" font-family="Arial" font-size="11.00">Durian&#45;Spain</text>
</g>
<!-- name:Durian&#45;&gt;name:Durian_item_Durian&#45;Spain -->
<g id="edge26" class="edge">
<title>name:Durian&#45;&gt;name:Durian_item_Durian&#45;Spain</title>
<path fill="none" stroke="black" d="M2238.88,-93.7C2227.95,-79.12 2212.22,-58.15 2200.21,-42.13"/>
<polygon fill="black" stroke="black" points="2202.38,-40.95 2196.22,-36.82 2198.46,-43.89 2202.38,-40.95"/>
</g>
<!-- name:Durian_item_Durian&#45;France -->
<g id="node28" class="node">
<title>name:Durian_item_Durian&#45;France</title>
<ellipse fill="#ffe6e6" stroke="black" cx="2321.86" cy="-18" rx="53.46" ry="18"/>
<text text-anchor="middle" x="2321.86" y="-14.3" font-family="Arial" font-size="11.00">Durian&#45;France</text>
</g>
<!-- name:Durian&#45;&gt;name:Durian_item_Durian&#45;France -->
<g id="edge27" class="edge">
<title>name:Durian&#45;&gt;name:Durian_item_Durian&#45;France</title>
<path fill="none" stroke="black" d="M2265.02,-93.7C2276.04,-79.21 2291.87,-58.41 2304.03,-42.43"/>
<polygon fill="black" stroke="black" points="2305.78,-44.17 2308.07,-37.12 2301.88,-41.21 2305.78,-44.17"/>
</g>
<!-- name:Durian_item_Durian&#45;Ecuador -->
<g id="node29" class="node">
<title>name:Durian_item_Durian&#45;Ecuador</title>
<ellipse fill="#ffe6e6" stroke="black" cx="2468.86" cy="-18" rx="57.66" ry="18"/>
<text text-anchor="middle" x="2468.86" y="-14.3" font-family="Arial" font-size="11.00">Durian&#45;Ecuador</text>
</g>
<!-- name:Durian&#45;&gt;name:Durian_item_Durian&#45;Ecuador -->
<g id="edge28" class="edge">
<title>name:Durian&#45;&gt;name:Durian_item_Durian&#45;Ecuador</title>
<path fill="none" stroke="black" d="M2291.41,-94.23C2330.14,-77.81 2388.9,-52.9 2428.06,-36.3"/>
<polygon fill="black" stroke="black" points="2428.74,-38.67 2434.23,-33.68 2426.83,-34.16 2428.74,-38.67"/>
</g>
<!-- name:Elderberry_item_Elderberry&#45;US -->
<g id="node31" class="node">
<title>name:Elderberry_item_Elderberry&#45;US</title>
<ellipse fill="#ffe6e6" stroke="black" cx="2615.86" cy="-18" rx="53.46" ry="18"/>
<text text-anchor="middle" x="2615.86" y="-14.3" font-family="Arial" font-size="11.00">Elderberry&#45;US</text>
</g>
<!-- name:Elderberry&#45;&gt;name:Elderberry_item_Elderberry&#45;US -->
<g id="edge30" class="edge">
<title>name:Elderberry&#45;&gt;name:Elderberry_item_Elderberry&#45;US</title>
<path fill="none" stroke="black" d="M2615.86,-93.7C2615.86,-79.82 2615.86,-60.14 2615.86,-44.46"/>
<polygon fill="black" stroke="black" points="2618.31,-44.74 2615.86,-37.74 2613.41,-44.74 2618.31,-44.74"/>
</g>
<!-- name:Elderberry_item_Elderberry&#45;Italy -->
<g id="node32" class="node">
<title>name:Elderberry_item_Elderberry&#45;Italy</title>
<ellipse fill="#ffe6e6" stroke="black" cx="2760.86" cy="-18" rx="55.79" ry="18"/>
<text text-anchor="middle" x="2760.86" y="-14.3" font-family="Arial" font-size="11.00">Elderberry&#45;Italy</text>
</g>
<!-- name:Elderberry&#45;&gt;name:Elderberry_item_Elderberry&#45;Italy -->
<g id="edge31" class="edge">
<title>name:Elderberry&#45;&gt;name:Elderberry_item_Elderberry&#45;Italy</title>
<path fill="none" stroke="black" d="M2643.13,-93.7C2667.73,-78.09 2703.89,-55.15 2729.63,-38.81"/>
<polygon fill="black" stroke="black" points="2730.72,-41.02 2735.32,-35.2 2728.1,-36.88 2730.72,-41.02"/>
</g>
<!-- name:Apple:color:Green -->
<g id="node34" class="node">
<title>name:Apple:color:Green</title>
<path fill="#f0f8ff" stroke="black" d="M2947.36,-130C2947.36,-130 2838.36,-130 2838.36,-130 2832.36,-130 2826.36,-124 2826.36,-118 2826.36,-118 2826.36,-106 2826.36,-106 2826.36,-100 2832.36,-94 2838.36,-94 2838.36,-94 2947.36,-94 2947.36,-94 2953.36,-94 2959.36,-100 2959.36,-106 2959.36,-106 2959.36,-118 2959.36,-118 2959.36,-124 2953.36,-130 2947.36,-130"/>
<text text-anchor="middle" x="2892.86" y="-115.05" font-family="Arial" font-size="11.00">name:Apple:color:Green</text>
<text text-anchor="middle" x="2892.86" y="-101.55" font-family="Arial" font-size="11.00">(1 items)</text>
</g>
<!-- keyLevel_4&#45;&gt;name:Apple:color:Green -->
<g id="edge33" class="edge">
<title>keyLevel_4&#45;&gt;name:Apple:color:Green</title>
<path fill="none" stroke="black" d="M3346.41,-194.89C3230.13,-174.41 2977.86,-130 2977.86,-130 2977.86,-130 2973.99,-129.23 2967.9,-128.01"/>
<polygon fill="black" stroke="black" points="2968.66,-125.66 2961.32,-126.69 2967.7,-130.47 2968.66,-125.66"/>
</g>
<!-- name:Apple:color:Orange -->
<g id="node36" class="node">
<title>name:Apple:color:Orange</title>
<path fill="#f0f8ff" stroke="black" d="M3122.36,-130C3122.36,-130 3007.36,-130 3007.36,-130 3001.36,-130 2995.36,-124 2995.36,-118 2995.36,-118 2995.36,-106 2995.36,-106 2995.36,-100 3001.36,-94 3007.36,-94 3007.36,-94 3122.36,-94 3122.36,-94 3128.36,-94 3134.36,-100 3134.36,-106 3134.36,-106 3134.36,-118 3134.36,-118 3134.36,-124 3128.36,-130 3122.36,-130"/>
<text text-anchor="middle" x="3064.86" y="-115.05" font-family="Arial" font-size="11.00">name:Apple:color:Orange</text>
<text text-anchor="middle" x="3064.86" y="-101.55" font-family="Arial" font-size="11.00">(1 items)</text>
</g>
<!-- keyLevel_4&#45;&gt;name:Apple:color:Orange -->
<g id="edge35" class="edge">
<title>keyLevel_4&#45;&gt;name:Apple:color:Orange</title>
<path fill="none" stroke="black" d="M3346.73,-189.5C3289.01,-173.83 3199.64,-149.58 3137.04,-132.59"/>
<polygon fill="black" stroke="black" points="3138.02,-130.32 3130.62,-130.85 3136.74,-135.05 3138.02,-130.32"/>
</g>
<!-- name:Apple:color:Red -->
<g id="node38" class="node">
<title>name:Apple:color:Red</title>
<path fill="#f0f8ff" stroke="black" d="M3281.48,-130C3281.48,-130 3182.23,-130 3182.23,-130 3176.23,-130 3170.23,-124 3170.23,-118 3170.23,-118 3170.23,-106 3170.23,-106 3170.23,-100 3176.23,-94 3182.23,-94 3182.23,-94 3281.48,-94 3281.48,-94 3287.48,-94 3293.48,-100 3293.48,-106 3293.48,-106 3293.48,-118 3293.48,-118 3293.48,-124 3287.48,-130 3281.48,-130"/>
<text text-anchor="middle" x="3231.86" y="-115.05" font-family="Arial" font-size="11.00">name:Apple:color:Red</text>
<text text-anchor="middle" x="3231.86" y="-101.55" font-family="Arial" font-size="11.00">(1 items)</text>
</g>
<!-- keyLevel_4&#45;&gt;name:Apple:color:Red -->
<g id="edge37" class="edge">
<title>keyLevel_4&#45;&gt;name:Apple:color:Red</title>
<path fill="none" stroke="black" d="M3372.31,-188.13C3343.94,-172.95 3302.13,-150.59 3271.51,-134.21"/>
<polygon fill="black" stroke="black" points="3273.04,-132.25 3265.71,-131.11 3270.73,-136.57 3273.04,-132.25"/>
</g>
<!-- name:Banana:color:Orange -->
<g id="node40" class="node">
<title>name:Banana:color:Orange</title>
<path fill="#f0f8ff" stroke="black" d="M3466.23,-130C3466.23,-130 3341.48,-130 3341.48,-130 3335.48,-130 3329.48,-124 3329.48,-118 3329.48,-118 3329.48,-106 3329.48,-106 3329.48,-100 3335.48,-94 3341.48,-94 3341.48,-94 3466.23,-94 3466.23,-94 3472.23,-94 3478.23,-100 3478.23,-106 3478.23,-106 3478.23,-118 3478.23,-118 3478.23,-124 3472.23,-130 3466.23,-130"/>
<text text-anchor="middle" x="3403.86" y="-115.05" font-family="Arial" font-size="11.00">name:Banana:color:Orange</text>
<text text-anchor="middle" x="3403.86" y="-101.55" font-family="Arial" font-size="11.00">(1 items)</text>
</g>
<!-- keyLevel_4&#45;&gt;name:Banana:color:Orange -->
<g id="edge39" class="edge">
<title>keyLevel_4&#45;&gt;name:Banana:color:Orange</title>
<path fill="none" stroke="black" d="M3403.86,-188.13C3403.86,-174.29 3403.86,-154.5 3403.86,-138.7"/>
<polygon fill="black" stroke="black" points="3406.31,-138.91 3403.86,-131.91 3401.41,-138.91 3406.31,-138.91"/>
</g>
<!-- name:Cherry:color:Orange -->
<g id="node42" class="node">
<title>name:Cherry:color:Orange</title>
<path fill="#f0f8ff" stroke="black" d="M3646.98,-130C3646.98,-130 3526.73,-130 3526.73,-130 3520.73,-130 3514.73,-124 3514.73,-118 3514.73,-118 3514.73,-106 3514.73,-106 3514.73,-100 3520.73,-94 3526.73,-94 3526.73,-94 3646.98,-94 3646.98,-94 3652.98,-94 3658.98,-100 3658.98,-106 3658.98,-106 3658.98,-118 3658.98,-118 3658.98,-124 3652.98,-130 3646.98,-130"/>
<text text-anchor="middle" x="3586.86" y="-115.05" font-family="Arial" font-size="11.00">name:Cherry:color:Orange</text>
<text text-anchor="middle" x="3586.86" y="-101.55" font-family="Arial" font-size="11.00">(1 items)</text>
</g>
<!-- keyLevel_4&#45;&gt;name:Cherry:color:Orange -->
<g id="edge41" class="edge">
<title>keyLevel_4&#45;&gt;name:Cherry:color:Orange</title>
<path fill="none" stroke="black" d="M3437.42,-188.13C3467.61,-172.95 3512.09,-150.59 3544.67,-134.21"/>
<polygon fill="black" stroke="black" points="3545.76,-136.41 3550.91,-131.07 3543.56,-132.03 3545.76,-136.41"/>
</g>
<!-- name:Durian:color:Red -->
<g id="node44" class="node">
<title>name:Durian:color:Red</title>
<path fill="#f0f8ff" stroke="black" d="M3810.73,-130C3810.73,-130 3706.98,-130 3706.98,-130 3700.98,-130 3694.98,-124 3694.98,-118 3694.98,-118 3694.98,-106 3694.98,-106 3694.98,-100 3700.98,-94 3706.98,-94 3706.98,-94 3810.73,-94 3810.73,-94 3816.73,-94 3822.73,-100 3822.73,-106 3822.73,-106 3822.73,-118 3822.73,-118 3822.73,-124 3816.73,-130 3810.73,-130"/>
<text text-anchor="middle" x="3758.86" y="-115.05" font-family="Arial" font-size="11.00">name:Durian:color:Red</text>
<text text-anchor="middle" x="3758.86" y="-101.55" font-family="Arial" font-size="11.00">(1 items)</text>
</g>
<!-- keyLevel_4&#45;&gt;name:Durian:color:Red -->
<g id="edge43" class="edge">
<title>keyLevel_4&#45;&gt;name:Durian:color:Red</title>
<path fill="none" stroke="black" d="M3461.29,-190.12C3522.67,-174.21 3620.11,-148.96 3686.64,-131.71"/>
<polygon fill="black" stroke="black" points="3686.97,-134.16 3693.13,-130.03 3685.74,-129.42 3686.97,-134.16"/>
</g>
<!-- name:Durian:color:Yellow -->
<g id="node46" class="node">
<title>name:Durian:color:Yellow</title>
<path fill="#f0f8ff" stroke="black" d="M3984.98,-130C3984.98,-130 3870.73,-130 3870.73,-130 3864.73,-130 3858.73,-124 3858.73,-118 3858.73,-118 3858.73,-106 3858.73,-106 3858.73,-100 3864.73,-94 3870.73,-94 3870.73,-94 3984.98,-94 3984.98,-94 3990.98,-94 3996.98,-100 3996.98,-106 3996.98,-106 3996.98,-118 3996.98,-118 3996.98,-124 3990.98,-130 3984.98,-130"/>
<text text-anchor="middle" x="3927.86" y="-115.05" font-family="Arial" font-size="11.00">name:Durian:color:Yellow</text>
<text text-anchor="middle" x="3927.86" y="-101.55" font-family="Arial" font-size="11.00">(2 items)</text>
</g>
<!-- keyLevel_4&#45;&gt;name:Durian:color:Yellow -->
<g id="edge45" class="edge">
<title>keyLevel_4&#45;&gt;name:Durian:color:Yellow</title>
<path fill="none" stroke="black" d="M3460.99,-195.2C3579.44,-174.87 3840.86,-130 3840.86,-130 3840.86,-130 3844.45,-129.3 3850.18,-128.18"/>
<polygon fill="black" stroke="black" points="3850.58,-130.6 3856.98,-126.85 3849.64,-125.79 3850.58,-130.6"/>
</g>
<!-- name:Elderberry:color:Orange -->
<g id="node49" class="node">
<title>name:Elderberry:color:Orange</title>
<path fill="#f0f8ff" stroke="black" d="M4241.61,-130C4241.61,-130 4104.11,-130 4104.11,-130 4098.11,-130 4092.11,-124 4092.11,-118 4092.11,-118 4092.11,-106 4092.11,-106 4092.11,-100 4098.11,-94 4104.11,-94 4104.11,-94 4241.61,-94 4241.61,-94 4247.61,-94 4253.61,-100 4253.61,-106 4253.61,-106 4253.61,-118 4253.61,-118 4253.61,-124 4247.61,-130 4241.61,-130"/>
<text text-anchor="middle" x="4172.86" y="-115.05" font-family="Arial" font-size="11.00">name:Elderberry:color:Orange</text>
<text text-anchor="middle" x="4172.86" y="-101.55" font-family="Arial" font-size="11.00">(2 items)</text>
</g>
<!-- keyLevel_4&#45;&gt;name:Elderberry:color:Orange -->
<g id="edge48" class="edge">
<title>keyLevel_4&#45;&gt;name:Elderberry:color:Orange</title>
<path fill="none" stroke="black" d="M3461.34,-198.12C3594.26,-182.22 3923.63,-142.82 4083.27,-123.72"/>
<polygon fill="black" stroke="black" points="4083.52,-126.16 4090.17,-122.89 4082.93,-121.29 4083.52,-126.16"/>
</g>
<!-- name:Apple:color:Green_item_Apple&#45;Ecuador -->
<g id="node35" class="node">
<title>name:Apple:color:Green_item_Apple&#45;Ecuador</title>
<ellipse fill="#ffe6e6" stroke="black" cx="2907.86" cy="-18" rx="54.86" ry="18"/>
<text text-anchor="middle" x="2907.86" y="-14.3" font-family="Arial" font-size="11.00">Apple&#45;Ecuador</text>
</g>
<!-- name:Apple:color:Green&#45;&gt;name:Apple:color:Green_item_Apple&#45;Ecuador -->
<g id="edge34" class="edge">
<title>name:Apple:color:Green&#45;&gt;name:Apple:color:Green_item_Apple&#45;Ecuador</title>
<path fill="none" stroke="black" d="M2895.68,-93.7C2897.94,-79.82 2901.15,-60.14 2903.71,-44.46"/>
<polygon fill="black" stroke="black" points="2906.1,-45.02 2904.81,-37.72 2901.26,-44.24 2906.1,-45.02"/>
</g>
<!-- name:Apple:color:Orange_item_Apple&#45;France -->
<g id="node37" class="node">
<title>name:Apple:color:Orange_item_Apple&#45;France</title>
<ellipse fill="#ffe6e6" stroke="black" cx="3064.86" cy="-18" rx="50.65" ry="18"/>
<text text-anchor="middle" x="3064.86" y="-14.3" font-family="Arial" font-size="11.00">Apple&#45;France</text>
</g>
<!-- name:Apple:color:Orange&#45;&gt;name:Apple:color:Orange_item_Apple&#45;France -->
<g id="edge36" class="edge">
<title>name:Apple:color:Orange&#45;&gt;name:Apple:color:Orange_item_Apple&#45;France</title>
<path fill="none" stroke="black" d="M3064.86,-93.7C3064.86,-79.82 3064.86,-60.14 3064.86,-44.46"/>
<polygon fill="black" stroke="black" points="3067.31,-44.74 3064.86,-37.74 3062.41,-44.74 3067.31,-44.74"/>
</g>
<!-- name:Apple:color:Red_item_Apple&#45;Spain -->
<g id="node39" class="node">
<title>name:Apple:color:Red_item_Apple&#45;Spain</title>
<ellipse fill="#ffe6e6" stroke="black" cx="3231.86" cy="-18" rx="46.91" ry="18"/>
<text text-anchor="middle" x="3231.86" y="-14.3" font-family="Arial" font-size="11.00">Apple&#45;Spain</text>
</g>
<!-- name:Apple:color:Red&#45;&gt;name:Apple:color:Red_item_Apple&#45;Spain -->
<g id="edge38" class="edge">
<title>name:Apple:color:Red&#45;&gt;name:Apple:color:Red_item_Apple&#45;Spain</title>
<path fill="none" stroke="black" d="M3231.86,-93.7C3231.86,-79.82 3231.86,-60.14 3231.86,-44.46"/>
<polygon fill="black" stroke="black" points="3234.31,-44.74 3231.86,-37.74 3229.41,-44.74 3234.31,-44.74"/>
</g>
<!-- name:Banana:color:Orange_item_Banana&#45;France -->
<g id="node41" class="node">
<title>name:Banana:color:Orange_item_Banana&#45;France</title>
<ellipse fill="#ffe6e6" stroke="black" cx="3403.86" cy="-18" rx="56.73" ry="18"/>
<text text-anchor="middle" x="3403.86" y="-14.3" font-family="Arial" font-size="11.00">Banana&#45;France</text>
</g>
<!-- name:Banana:color:Orange&#45;&gt;name:Banana:color:Orange_item_Banana&#45;France -->
<g id="edge40" class="edge">
<title>name:Banana:color:Orange&#45;&gt;name:Banana:color:Orange_item_Banana&#45;France</title>
<path fill="none" stroke="black" d="M3403.86,-93.7C3403.86,-79.82 3403.86,-60.14 3403.86,-44.46"/>
<polygon fill="black" stroke="black" points="3406.31,-44.74 3403.86,-37.74 3401.41,-44.74 3406.31,-44.74"/>
</g>
<!-- name:Cherry:color:Orange_item_Cherry&#45;France -->
<g id="node43" class="node">
<title>name:Cherry:color:Orange_item_Cherry&#45;France</title>
<ellipse fill="#ffe6e6" stroke="black" cx="3586.86" cy="-18" rx="53.92" ry="18"/>
<text text-anchor="middle" x="3586.86" y="-14.3" font-family="Arial" font-size="11.00">Cherry&#45;France</text>
</g>
<!-- name:Cherry:color:Orange&#45;&gt;name:Cherry:color:Orange_item_Cherry&#45;France -->
<g id="edge42" class="edge">
<title>name:Cherry:color:Orange&#45;&gt;name:Cherry:color:Orange_item_Cherry&#45;France</title>
<path fill="none" stroke="black" d="M3586.86,-93.7C3586.86,-79.82 3586.86,-60.14 3586.86,-44.46"/>
<polygon fill="black" stroke="black" points="3589.31,-44.74 3586.86,-37.74 3584.41,-44.74 3589.31,-44.74"/>
</g>
<!-- name:Durian:color:Red_item_Durian&#45;France -->
<g id="node45" class="node">
<title>name:Durian:color:Red_item_Durian&#45;France</title>
<ellipse fill="#ffe6e6" stroke="black" cx="3743.86" cy="-18" rx="53.46" ry="18"/>
<text text-anchor="middle" x="3743.86" y="-14.3" font-family="Arial" font-size="11.00">Durian&#45;France</text>
</g>
<!-- name:Durian:color:Red&#45;&gt;name:Durian:color:Red_item_Durian&#45;France -->
<g id="edge44" class="edge">
<title>name:Durian:color:Red&#45;&gt;name:Durian:color:Red_item_Durian&#45;France</title>
<path fill="none" stroke="black" d="M3756.04,-93.7C3753.77,-79.82 3750.56,-60.14 3748.01,-44.46"/>
<polygon fill="black" stroke="black" points="3750.45,-44.24 3746.91,-37.72 3745.62,-45.02 3750.45,-44.24"/>
</g>
<!-- name:Durian:color:Yellow_item_Durian&#45;Spain -->
<g id="node47" class="node">
<title>name:Durian:color:Yellow_item_Durian&#45;Spain</title>
<ellipse fill="#ffe6e6" stroke="black" cx="3882.86" cy="-18" rx="49.71" ry="18"/>
<text text-anchor="middle" x="3882.86" y="-14.3" font-family="Arial" font-size="11.00">Durian&#45;Spain</text>
</g>
<!-- name:Durian:color:Yellow&#45;&gt;name:Durian:color:Yellow_item_Durian&#45;Spain -->
<g id="edge46" class="edge">
<title>name:Durian:color:Yellow&#45;&gt;name:Durian:color:Yellow_item_Durian&#45;Spain</title>
<path fill="none" stroke="black" d="M3919.39,-93.7C3912.48,-79.56 3902.62,-59.41 3894.89,-43.59"/>
<polygon fill="black" stroke="black" points="3897.23,-42.8 3891.95,-37.59 3892.82,-44.95 3897.23,-42.8"/>
</g>
<!-- name:Durian:color:Yellow_item_Durian&#45;Ecuador -->
<g id="node48" class="node">
<title>name:Durian:color:Yellow_item_Durian&#45;Ecuador</title>
<ellipse fill="#ffe6e6" stroke="black" cx="4025.86" cy="-18" rx="57.66" ry="18"/>
<text text-anchor="middle" x="4025.86" y="-14.3" font-family="Arial" font-size="11.00">Durian&#45;Ecuador</text>
</g>
<!-- name:Durian:color:Yellow&#45;&gt;name:Durian:color:Yellow_item_Durian&#45;Ecuador -->
<g id="edge47" class="edge">
<title>name:Durian:color:Yellow&#45;&gt;name:Durian:color:Yellow_item_Durian&#45;Ecuador</title>
<path fill="none" stroke="black" d="M3946.29,-93.7C3962.09,-78.86 3984.96,-57.4 4002.12,-41.28"/>
<polygon fill="black" stroke="black" points="4003.64,-43.22 4007.06,-36.64 4000.28,-39.65 4003.64,-43.22"/>
</g>
<!-- name:Elderberry:color:Orange_item_Elderberry&#45;US -->
<g id="node50" class="node">
<title>name:Elderberry:color:Orange_item_Elderberry&#45;US</title>
<ellipse fill="#ffe6e6" stroke="black" cx="4172.86" cy="-18" rx="53.46" ry="18"/>
<text text-anchor="middle" x="4172.86" y="-14.3" font-family="Arial" font-size="11.00">Elderberry&#45;US</text>
</g>
<!-- name:Elderberry:color:Orange&#45;&gt;name:Elderberry:color:Orange_item_Elderberry&#45;US -->
<g id="edge49" class="edge">
<title>name:Elderberry:color:Orange&#45;&gt;name:Elderberry:color:Orange_item_Elderberry&#45;US</title>
<path fill="none" stroke="black" d="M4172.86,-93.7C4172.86,-79.82 4172.86,-60.14 4172.86,-44.46"/>
<polygon fill="black" stroke="black" points="4175.31,-44.74 4172.86,-37.74 4170.41,-44.74 4175.31,-44.74"/>
</g>
<!-- name:Elderberry:color:Orange_item_Elderberry&#45;Italy -->
<g id="node51" class="node">
<title>name:Elderberry:color:Orange_item_Elderberry&#45;Italy</title>
<ellipse fill="#ffe6e6" stroke="black" cx="4317.86" cy="-18" rx="55.79" ry="18"/>
<text text-anchor="middle" x="4317.86" y="-14.3" font-family="Arial" font-size="11.00">Elderberry&#45;Italy</text>
</g>
<!-- name:Elderberry:color:Orange&#45;&gt;name:Elderberry:color:Orange_item_Elderberry&#45;Italy -->
<g id="edge50" class="edge">
<title>name:Elderberry:color:Orange&#45;&gt;name:Elderberry:color:Orange_item_Elderberry&#45;Italy</title>
<path fill="none" stroke="black" d="M4200.13,-93.7C4224.73,-78.09 4260.89,-55.15 4286.63,-38.81"/>
<polygon fill="black" stroke="black" points="4287.72,-41.02 4292.32,-35.2 4285.1,-36.88 4287.72,-41.02"/>
</g>
</g>
</svg>
