<?xml version="1.0" encoding="UTF-8" standalone="no"?>
<!DOCTYPE svg PUBLIC "-//W3C//DTD SVG 1.1//EN"
 "http://www.w3.org/Graphics/SVG/1.1/DTD/svg11.dtd">
<!-- Generated by graphviz version 12.2.1 (20241206.2353)
 -->
<!-- Title: DataStore Pages: 1 -->
<svg width="480pt" height="359pt"
 viewBox="0.00 0.00 479.50 358.75" xmlns="http://www.w3.org/2000/svg" xmlns:xlink="http://www.w3.org/1999/xlink">
<g id="graph0" class="graph" transform="scale(1 1) rotate(0) translate(4 354.75)">
<title>DataStore</title>
<polygon fill="white" stroke="none" points="-4,4 -4,-354.75 475.5,-354.75 475.5,4 -4,4"/>
<!-- stats -->
<g id="node1" class="node">
<title>stats</title>
<polygon fill="#e6e6fa" stroke="none" points="14.5,-326.5 14.5,-346.75 133,-346.75 133,-326.5 14.5,-326.5"/>
<polygon fill="none" stroke="black" points="14.5,-326.5 14.5,-346.75 133,-346.75 133,-326.5 14.5,-326.5"/>
<text text-anchor="start" x="17.5" y="-333.35" font-family="Arial" font-weight="bold" font-size="12.00">DataStore Statistics</text>
<polygon fill="none" stroke="black" points="14.5,-306.25 14.5,-326.5 133,-326.5 133,-306.25 14.5,-306.25"/>
<text text-anchor="start" x="17.5" y="-312.1" font-family="Arial" font-size="12.00">Total Keys: 5</text>
<polygon fill="none" stroke="black" points="14.5,-286 14.5,-306.25 133,-306.25 133,-286 14.5,-286"/>
<text text-anchor="start" x="17.5" y="-291.85" font-family="Arial" font-size="12.00">Total Items: 79</text>
</g>
<!-- keyCategory -->
<g id="node2" class="node">
<title>keyCategory</title>
<polygon fill="#d0e0ff" stroke="none" points="185.5,-306.25 185.5,-326.5 286,-326.5 286,-306.25 185.5,-306.25"/>
<polygon fill="none" stroke="black" points="185.5,-306.25 185.5,-326.5 286,-326.5 286,-306.25 185.5,-306.25"/>
<text text-anchor="start" x="188.5" y="-313.1" font-family="Arial" font-weight="bold" font-size="12.00">Composite Keys</text>
</g>
<!-- stats&#45;&gt;keyCategory -->
<!-- keyLevel_2 -->
<g id="node3" class="node">
<title>keyLevel_2</title>
<polygon fill="#e0efff" stroke="none" points="186.25,-196.25 186.25,-215.75 285.25,-215.75 285.25,-196.25 186.25,-196.25"/>
<polygon fill="none" stroke="black" points="186.25,-196.25 186.25,-215.75 285.25,-215.75 285.25,-196.25 186.25,-196.25"/>
<text text-anchor="start" x="189.25" y="-202.3" font-family="Arial" font-size="11.00">2&#45;Component Keys</text>
</g>
<!-- keyCategory&#45;&gt;keyLevel_2 -->
<g id="edge2" class="edge">
<title>keyCategory&#45;&gt;keyLevel_2</title>
<path fill="none" stroke="black" d="M235.75,-298.44C235.75,-280.71 235.75,-252.65 235.75,-232.29"/>
<polygon fill="black" stroke="black" points="238.2,-232.33 235.75,-225.33 233.3,-232.33 238.2,-232.33"/>
</g>
<!-- country:ca -->
<g id="node4" class="node">
<title>country:ca</title>
<path fill="#f0f8ff" stroke="black" d="M53.5,-130C53.5,-130 12,-130 12,-130 6,-130 0,-124 0,-118 0,-118 0,-106 0,-106 0,-100 6,-94 12,-94 12,-94 53.5,-94 53.5,-94 59.5,-94 65.5,-100 65.5,-106 65.5,-106 65.5,-118 65.5,-118 65.5,-124 59.5,-130 53.5,-130"/>
<text text-anchor="middle" x="32.75" y="-115.05" font-family="Arial" font-size="11.00">country:ca</text>
<text text-anchor="middle" x="32.75" y="-101.55" font-family="Arial" font-size="11.00">(20 items)</text>
</g>
<!-- keyLevel_2&#45;&gt;country:ca -->
<g id="edge3" class="edge">
<title>keyLevel_2&#45;&gt;country:ca</title>
<path fill="none" stroke="black" d="M198.52,-188.13C163.04,-172.05 109.77,-147.9 73.24,-131.35"/>
<polygon fill="black" stroke="black" points="74.48,-129.22 67.1,-128.57 72.46,-133.69 74.48,-129.22"/>
</g>
<!-- country:de -->
<g id="node6" class="node">
<title>country:de</title>
<path fill="#f0f8ff" stroke="black" d="M155.88,-130C155.88,-130 113.62,-130 113.62,-130 107.62,-130 101.62,-124 101.62,-118 101.62,-118 101.62,-106 101.62,-106 101.62,-100 107.62,-94 113.62,-94 113.62,-94 155.88,-94 155.88,-94 161.88,-94 167.88,-100 167.88,-106 167.88,-106 167.88,-118 167.88,-118 167.88,-124 161.88,-130 155.88,-130"/>
<text text-anchor="middle" x="134.75" y="-115.05" font-family="Arial" font-size="11.00">country:de</text>
<text text-anchor="middle" x="134.75" y="-101.55" font-family="Arial" font-size="11.00">(22 items)</text>
</g>
<!-- keyLevel_2&#45;&gt;country:de -->
<g id="edge5" class="edge">
<title>keyLevel_2&#45;&gt;country:de</title>
<path fill="none" stroke="black" d="M217.23,-188.13C201.2,-173.53 177.87,-152.28 160.11,-136.1"/>
<polygon fill="black" stroke="black" points="161.79,-134.31 154.96,-131.41 158.49,-137.94 161.79,-134.31"/>
</g>
<!-- country:fr -->
<g id="node8" class="node">
<title>country:fr</title>
<path fill="#f0f8ff" stroke="black" d="M255.75,-130C255.75,-130 215.75,-130 215.75,-130 209.75,-130 203.75,-124 203.75,-118 203.75,-118 203.75,-106 203.75,-106 203.75,-100 209.75,-94 215.75,-94 215.75,-94 255.75,-94 255.75,-94 261.75,-94 267.75,-100 267.75,-106 267.75,-106 267.75,-118 267.75,-118 267.75,-124 261.75,-130 255.75,-130"/>
<text text-anchor="middle" x="235.75" y="-115.05" font-family="Arial" font-size="11.00">country:fr</text>
<text text-anchor="middle" x="235.75" y="-101.55" font-family="Arial" font-size="11.00">(20 items)</text>
</g>
<!-- keyLevel_2&#45;&gt;country:fr -->
<g id="edge7" class="edge">
<title>keyLevel_2&#45;&gt;country:fr</title>
<path fill="none" stroke="black" d="M235.75,-188.13C235.75,-174.29 235.75,-154.5 235.75,-138.7"/>
<polygon fill="black" stroke="black" points="238.2,-138.91 235.75,-131.91 233.3,-138.91 238.2,-138.91"/>
</g>
<!-- country:uk -->
<g id="node10" class="node">
<title>country:uk</title>
<path fill="#f0f8ff" stroke="black" d="M357.5,-130C357.5,-130 316,-130 316,-130 310,-130 304,-124 304,-118 304,-118 304,-106 304,-106 304,-100 310,-94 316,-94 316,-94 357.5,-94 357.5,-94 363.5,-94 369.5,-100 369.5,-106 369.5,-106 369.5,-118 369.5,-118 369.5,-124 363.5,-130 357.5,-130"/>
<text text-anchor="middle" x="336.75" y="-115.05" font-family="Arial" font-size="11.00">country:uk</text>
<text text-anchor="middle" x="336.75" y="-101.55" font-family="Arial" font-size="11.00">(15 items)</text>
</g>
<!-- keyLevel_2&#45;&gt;country:uk -->
<g id="edge9" class="edge">
<title>keyLevel_2&#45;&gt;country:uk</title>
<path fill="none" stroke="black" d="M254.27,-188.13C270.3,-173.53 293.63,-152.28 311.39,-136.1"/>
<polygon fill="black" stroke="black" points="313.01,-137.94 316.54,-131.41 309.71,-134.31 313.01,-137.94"/>
</g>
<!-- country:us -->
<g id="node12" class="node">
<title>country:us</title>
<path fill="#f0f8ff" stroke="black" d="M459.5,-130C459.5,-130 418,-130 418,-130 412,-130 406,-124 406,-118 406,-118 406,-106 406,-106 406,-100 412,-94 418,-94 418,-94 459.5,-94 459.5,-94 465.5,-94 471.5,-100 471.5,-106 471.5,-106 471.5,-118 471.5,-118 471.5,-124 465.5,-130 459.5,-130"/>
<text text-anchor="middle" x="438.75" y="-115.05" font-family="Arial" font-size="11.00">country:us</text>
<text text-anchor="middle" x="438.75" y="-101.55" font-family="Arial" font-size="11.00">(23 items)</text>
</g>
<!-- keyLevel_2&#45;&gt;country:us -->
<g id="edge11" class="edge">
<title>keyLevel_2&#45;&gt;country:us</title>
<path fill="none" stroke="black" d="M272.98,-188.13C308.46,-172.05 361.73,-147.9 398.26,-131.35"/>
<polygon fill="black" stroke="black" points="399.04,-133.69 404.4,-128.57 397.02,-129.22 399.04,-133.69"/>
</g>
<!-- country:ca_items -->
<g id="node5" class="node">
<title>country:ca_items</title>
<polygon fill="#ffefef" stroke="black" points="61,-36 58,-40 37,-40 34,-36 4.5,-36 4.5,0 61,0 61,-36"/>
<text text-anchor="middle" x="32.75" y="-14.3" font-family="Arial" font-size="11.00">20 items</text>
</g>
<!-- country:ca&#45;&gt;country:ca_items -->
<g id="edge4" class="edge">
<title>country:ca&#45;&gt;country:ca_items</title>
<path fill="none" stroke="black" d="M32.75,-93.7C32.75,-79.82 32.75,-60.14 32.75,-44.46"/>
<polygon fill="black" stroke="black" points="35.2,-44.74 32.75,-37.74 30.3,-44.74 35.2,-44.74"/>
</g>
<!-- country:de_items -->
<g id="node7" class="node">
<title>country:de_items</title>
<polygon fill="#ffefef" stroke="black" points="163,-36 160,-40 139,-40 136,-36 106.5,-36 106.5,0 163,0 163,-36"/>
<text text-anchor="middle" x="134.75" y="-14.3" font-family="Arial" font-size="11.00">22 items</text>
</g>
<!-- country:de&#45;&gt;country:de_items -->
<g id="edge6" class="edge">
<title>country:de&#45;&gt;country:de_items</title>
<path fill="none" stroke="black" d="M134.75,-93.7C134.75,-79.82 134.75,-60.14 134.75,-44.46"/>
<polygon fill="black" stroke="black" points="137.2,-44.74 134.75,-37.74 132.3,-44.74 137.2,-44.74"/>
</g>
<!-- country:fr_items -->
<g id="node9" class="node">
<title>country:fr_items</title>
<polygon fill="#ffefef" stroke="black" points="264,-36 261,-40 240,-40 237,-36 207.5,-36 207.5,0 264,0 264,-36"/>
<text text-anchor="middle" x="235.75" y="-14.3" font-family="Arial" font-size="11.00">20 items</text>
</g>
<!-- country:fr&#45;&gt;country:fr_items -->
<g id="edge8" class="edge">
<title>country:fr&#45;&gt;country:fr_items</title>
<path fill="none" stroke="black" d="M235.75,-93.7C235.75,-79.82 235.75,-60.14 235.75,-44.46"/>
<polygon fill="black" stroke="black" points="238.2,-44.74 235.75,-37.74 233.3,-44.74 238.2,-44.74"/>
</g>
<!-- country:uk_items -->
<g id="node11" class="node">
<title>country:uk_items</title>
<polygon fill="#ffefef" stroke="black" points="365,-36 362,-40 341,-40 338,-36 308.5,-36 308.5,0 365,0 365,-36"/>
<text text-anchor="middle" x="336.75" y="-14.3" font-family="Arial" font-size="11.00">15 items</text>
</g>
<!-- country:uk&#45;&gt;country:uk_items -->
<g id="edge10" class="edge">
<title>country:uk&#45;&gt;country:uk_items</title>
<path fill="none" stroke="black" d="M336.75,-93.7C336.75,-79.82 336.75,-60.14 336.75,-44.46"/>
<polygon fill="black" stroke="black" points="339.2,-44.74 336.75,-37.74 334.3,-44.74 339.2,-44.74"/>
</g>
<!-- country:us_items -->
<g id="node13" class="node">
<title>country:us_items</title>
<polygon fill="#ffefef" stroke="black" points="467,-36 464,-40 443,-40 440,-36 410.5,-36 410.5,0 467,0 467,-36"/>
<text text-anchor="middle" x="438.75" y="-14.3" font-family="Arial" font-size="11.00">23 items</text>
</g>
<!-- country:us&#45;&gt;country:us_items -->
<g id="edge12" class="edge">
<title>country:us&#45;&gt;country:us_items</title>
<path fill="none" stroke="black" d="M438.75,-93.7C438.75,-79.82 438.75,-60.14 438.75,-44.46"/>
<polygon fill="black" stroke="black" points="441.2,-44.74 438.75,-37.74 436.3,-44.74 441.2,-44.74"/>
</g>
</g>
</svg>
